<svg width="142" height="51" viewBox="0 0 142 51" fill="none" xmlns="http://www.w3.org/2000/svg">
<path d="M21.24 46C21.1467 46 21.0667 45.97 21 45.91C20.94 45.85 20.91 45.7767 20.91 45.69V39.26C20.91 39.1733 20.94 39.1 21 39.04C21.0667 38.98 21.1467 38.95 21.24 38.95H23.18C24.2933 38.95 25.1533 39.2533 25.76 39.86C26.3733 40.4667 26.68 41.3367 26.68 42.47C26.68 43.6033 26.3733 44.4767 25.76 45.09C25.1533 45.6967 24.2933 46 23.18 46H21.24ZM23.15 45.46C25.07 45.46 26.03 44.4633 26.03 42.47C26.03 40.4833 25.07 39.49 23.15 39.49H21.53V45.46H23.15ZM30.0445 46.07C29.5978 46.07 29.2045 45.9667 28.8645 45.76C28.5311 45.5533 28.2711 45.26 28.0845 44.88C27.8978 44.5 27.8045 44.0567 27.8045 43.55C27.8045 43.0433 27.8978 42.6 28.0845 42.22C28.2711 41.84 28.5311 41.5467 28.8645 41.34C29.2045 41.1333 29.5978 41.03 30.0445 41.03C30.4845 41.03 30.8745 41.1333 31.2145 41.34C31.5545 41.5467 31.8145 41.84 31.9945 42.22C32.1811 42.6 32.2745 43.0433 32.2745 43.55C32.2745 44.0567 32.1811 44.5 31.9945 44.88C31.8145 45.26 31.5545 45.5533 31.2145 45.76C30.8745 45.9667 30.4845 46.07 30.0445 46.07ZM30.0345 45.53C30.5478 45.53 30.9445 45.36 31.2245 45.02C31.5045 44.68 31.6445 44.19 31.6445 43.55C31.6445 42.9233 31.5011 42.4367 31.2145 42.09C30.9345 41.7367 30.5445 41.56 30.0445 41.56C29.5378 41.56 29.1445 41.7367 28.8645 42.09C28.5845 42.4367 28.4445 42.9233 28.4445 43.55C28.4445 44.19 28.5811 44.68 28.8545 45.02C29.1278 45.36 29.5211 45.53 30.0345 45.53ZM35.8337 41.03C37.0003 41.03 37.5837 41.6567 37.5837 42.91V45.74C37.5837 45.8333 37.557 45.91 37.5037 45.97C37.4503 46.0233 37.377 46.05 37.2837 46.05C37.1903 46.05 37.1137 46.0233 37.0537 45.97C37.0003 45.91 36.9737 45.8333 36.9737 45.74V42.95C36.9737 42.47 36.877 42.12 36.6837 41.9C36.4903 41.68 36.1837 41.57 35.7637 41.57C35.2837 41.57 34.897 41.7167 34.6037 42.01C34.317 42.3033 34.1737 42.6967 34.1737 43.19V45.74C34.1737 45.8333 34.147 45.91 34.0937 45.97C34.0403 46.0233 33.967 46.05 33.8737 46.05C33.7803 46.05 33.7037 46.0233 33.6437 45.97C33.5903 45.91 33.5637 45.8333 33.5637 45.74V41.36C33.5637 41.2667 33.5903 41.1933 33.6437 41.14C33.7037 41.08 33.7803 41.05 33.8737 41.05C33.9603 41.05 34.0303 41.0767 34.0837 41.13C34.137 41.1833 34.1637 41.2567 34.1637 41.35V41.98C34.317 41.6733 34.537 41.44 34.8237 41.28C35.117 41.1133 35.4537 41.03 35.8337 41.03ZM41.0891 41.03C41.6758 41.03 42.1125 41.1833 42.3991 41.49C42.6925 41.7967 42.8391 42.26 42.8391 42.88V45.73C42.8391 45.8233 42.8125 45.9 42.7591 45.96C42.7058 46.0133 42.6325 46.04 42.5391 46.04C42.4458 46.04 42.3725 46.0133 42.3191 45.96C42.2658 45.9 42.2391 45.8233 42.2391 45.73V45.13C42.0991 45.43 41.8958 45.6633 41.6291 45.83C41.3625 45.99 41.0558 46.07 40.7091 46.07C40.3958 46.07 40.1091 46.0067 39.8491 45.88C39.5958 45.7533 39.3925 45.58 39.2391 45.36C39.0858 45.14 39.0091 44.8933 39.0091 44.62C39.0025 44.2533 39.0925 43.97 39.2791 43.77C39.4658 43.5633 39.7758 43.4167 40.2091 43.33C40.6425 43.2433 41.2491 43.2 42.0291 43.2H42.2391V42.83C42.2391 42.39 42.1491 42.07 41.9691 41.87C41.7891 41.6633 41.5058 41.56 41.1191 41.56C40.6258 41.56 40.1558 41.69 39.7091 41.95C39.6891 41.9633 39.6358 42 39.5491 42.06C39.4691 42.1133 39.3991 42.14 39.3391 42.14C39.2725 42.14 39.2158 42.1167 39.1691 42.07C39.1291 42.0167 39.1091 41.9533 39.1091 41.88C39.1091 41.7333 39.2258 41.59 39.4591 41.45C39.6925 41.3167 39.9525 41.2133 40.2391 41.14C40.5258 41.0667 40.8091 41.03 41.0891 41.03ZM40.7591 45.54C41.1925 45.54 41.5458 45.3933 41.8191 45.1C42.0991 44.8067 42.2391 44.4333 42.2391 43.98V43.65H42.0491C41.4091 43.65 40.9191 43.6767 40.5791 43.73C40.2391 43.7833 39.9991 43.8767 39.8591 44.01C39.7191 44.1367 39.6491 44.3233 39.6491 44.57C39.6491 44.85 39.7558 45.0833 39.9691 45.27C40.1825 45.45 40.4458 45.54 40.7591 45.54ZM46.5428 45.54C46.7295 45.56 46.8228 45.6467 46.8228 45.8C46.8228 45.88 46.7928 45.9433 46.7328 45.99C46.6728 46.0367 46.5761 46.0567 46.4428 46.05L46.1628 46.03C45.6561 45.9967 45.2795 45.8433 45.0328 45.57C44.7928 45.29 44.6728 44.8667 44.6728 44.3V41.64H43.9128C43.8328 41.64 43.7695 41.62 43.7228 41.58C43.6761 41.5333 43.6528 41.4733 43.6528 41.4C43.6528 41.3267 43.6761 41.2667 43.7228 41.22C43.7695 41.1733 43.8328 41.15 43.9128 41.15H44.6728V39.91C44.6728 39.81 44.6995 39.7333 44.7528 39.68C44.8061 39.6267 44.8795 39.6 44.9728 39.6C45.0661 39.6 45.1395 39.6267 45.1928 39.68C45.2528 39.7333 45.2828 39.81 45.2828 39.91V41.15H46.4928C46.5795 41.15 46.6461 41.1733 46.6928 41.22C46.7395 41.2667 46.7628 41.3267 46.7628 41.4C46.7628 41.4733 46.7395 41.5333 46.6928 41.58C46.6461 41.62 46.5795 41.64 46.4928 41.64H45.2828V44.33C45.2828 44.7433 45.3628 45.04 45.5228 45.22C45.6828 45.3933 45.9328 45.4933 46.2728 45.52L46.5428 45.54ZM51.4243 44.96C51.4843 44.96 51.5343 44.9867 51.5743 45.04C51.621 45.0867 51.6443 45.1433 51.6443 45.21C51.6443 45.3567 51.531 45.5 51.3043 45.64C50.8243 45.9267 50.3176 46.07 49.7843 46.07C49.0443 46.07 48.461 45.8467 48.0343 45.4C47.6076 44.9533 47.3943 44.34 47.3943 43.56C47.3943 43.06 47.4876 42.62 47.6743 42.24C47.8676 41.8533 48.1343 41.5567 48.4743 41.35C48.821 41.1367 49.2176 41.03 49.6643 41.03C50.291 41.03 50.7843 41.2333 51.1443 41.64C51.511 42.04 51.6943 42.5933 51.6943 43.3C51.6943 43.42 51.6676 43.51 51.6143 43.57C51.561 43.6233 51.4743 43.65 51.3543 43.65H48.0243C48.0443 44.2633 48.2043 44.73 48.5043 45.05C48.8043 45.37 49.2276 45.53 49.7743 45.53C50.061 45.53 50.301 45.4933 50.4943 45.42C50.6876 45.34 50.8943 45.2367 51.1143 45.11C51.261 45.01 51.3643 44.96 51.4243 44.96ZM49.6643 41.53C49.1976 41.53 48.8243 41.6767 48.5443 41.97C48.2643 42.2633 48.0976 42.6733 48.0443 43.2H51.1343C51.121 42.6667 50.9876 42.2567 50.7343 41.97C50.481 41.6767 50.1243 41.53 49.6643 41.53ZM57.4875 39.46C57.1075 39.4867 56.8208 39.6067 56.6275 39.82C56.4342 40.0267 56.3375 40.3467 56.3375 40.78V41.15H57.5475C57.6342 41.15 57.7008 41.1733 57.7475 41.22C57.7942 41.2667 57.8175 41.3267 57.8175 41.4C57.8175 41.4733 57.7942 41.5333 57.7475 41.58C57.7008 41.62 57.6342 41.64 57.5475 41.64H56.3375V45.74C56.3375 45.8333 56.3075 45.91 56.2475 45.97C56.1875 46.0233 56.1142 46.05 56.0275 46.05C55.9342 46.05 55.8608 46.0233 55.8075 45.97C55.7542 45.9167 55.7275 45.84 55.7275 45.74V41.64H54.9675C54.8875 41.64 54.8242 41.62 54.7775 41.58C54.7308 41.5333 54.7075 41.4733 54.7075 41.4C54.7075 41.3267 54.7308 41.2667 54.7775 41.22C54.8242 41.1733 54.8875 41.15 54.9675 41.15H55.7275V40.9C55.7275 40.3133 55.8675 39.8533 56.1475 39.52C56.4342 39.1867 56.8475 39 57.3875 38.96L57.6475 38.94C57.9075 38.92 58.0375 38.9967 58.0375 39.17C58.0375 39.33 57.9408 39.42 57.7475 39.44L57.4875 39.46ZM60.523 46.07C60.0763 46.07 59.683 45.9667 59.343 45.76C59.0096 45.5533 58.7496 45.26 58.563 44.88C58.3763 44.5 58.283 44.0567 58.283 43.55C58.283 43.0433 58.3763 42.6 58.563 42.22C58.7496 41.84 59.0096 41.5467 59.343 41.34C59.683 41.1333 60.0763 41.03 60.523 41.03C60.963 41.03 61.353 41.1333 61.693 41.34C62.033 41.5467 62.293 41.84 62.473 42.22C62.6596 42.6 62.753 43.0433 62.753 43.55C62.753 44.0567 62.6596 44.5 62.473 44.88C62.293 45.26 62.033 45.5533 61.693 45.76C61.353 45.9667 60.963 46.07 60.523 46.07ZM60.513 45.53C61.0263 45.53 61.423 45.36 61.703 45.02C61.983 44.68 62.123 44.19 62.123 43.55C62.123 42.9233 61.9796 42.4367 61.693 42.09C61.413 41.7367 61.023 41.56 60.523 41.56C60.0163 41.56 59.623 41.7367 59.343 42.09C59.063 42.4367 58.923 42.9233 58.923 43.55C58.923 44.19 59.0596 44.68 59.333 45.02C59.6063 45.36 59.9996 45.53 60.513 45.53ZM66.3022 41.05C66.4289 41.0433 66.5189 41.06 66.5722 41.1C66.6255 41.14 66.6522 41.2067 66.6522 41.3C66.6522 41.4667 66.5522 41.56 66.3522 41.58L66.0522 41.61C65.5789 41.6567 65.2255 41.8267 64.9922 42.12C64.7655 42.4133 64.6522 42.7567 64.6522 43.15V45.74C64.6522 45.84 64.6255 45.9167 64.5722 45.97C64.5189 46.0233 64.4455 46.05 64.3522 46.05C64.2589 46.05 64.1822 46.0233 64.1222 45.97C64.0689 45.9167 64.0422 45.84 64.0422 45.74V41.36C64.0422 41.26 64.0689 41.1833 64.1222 41.13C64.1822 41.0767 64.2589 41.05 64.3522 41.05C64.4389 41.05 64.5089 41.0767 64.5622 41.13C64.6155 41.1833 64.6422 41.2567 64.6422 41.35V42C64.9155 41.4267 65.4222 41.1133 66.1622 41.06L66.3022 41.05ZM71.8704 41.03C72.4571 41.03 72.8937 41.1833 73.1804 41.49C73.4737 41.7967 73.6204 42.26 73.6204 42.88V45.73C73.6204 45.8233 73.5937 45.9 73.5404 45.96C73.4871 46.0133 73.4137 46.04 73.3204 46.04C73.2271 46.04 73.1537 46.0133 73.1004 45.96C73.0471 45.9 73.0204 45.8233 73.0204 45.73V45.13C72.8804 45.43 72.6771 45.6633 72.4104 45.83C72.1437 45.99 71.8371 46.07 71.4904 46.07C71.1771 46.07 70.8904 46.0067 70.6304 45.88C70.3771 45.7533 70.1737 45.58 70.0204 45.36C69.8671 45.14 69.7904 44.8933 69.7904 44.62C69.7837 44.2533 69.8737 43.97 70.0604 43.77C70.2471 43.5633 70.5571 43.4167 70.9904 43.33C71.4237 43.2433 72.0304 43.2 72.8104 43.2H73.0204V42.83C73.0204 42.39 72.9304 42.07 72.7504 41.87C72.5704 41.6633 72.2871 41.56 71.9004 41.56C71.4071 41.56 70.9371 41.69 70.4904 41.95C70.4704 41.9633 70.4171 42 70.3304 42.06C70.2504 42.1133 70.1804 42.14 70.1204 42.14C70.0537 42.14 69.9971 42.1167 69.9504 42.07C69.9104 42.0167 69.8904 41.9533 69.8904 41.88C69.8904 41.7333 70.0071 41.59 70.2404 41.45C70.4737 41.3167 70.7337 41.2133 71.0204 41.14C71.3071 41.0667 71.5904 41.03 71.8704 41.03ZM71.5404 45.54C71.9737 45.54 72.3271 45.3933 72.6004 45.1C72.8804 44.8067 73.0204 44.4333 73.0204 43.98V43.65H72.8304C72.1904 43.65 71.7004 43.6767 71.3604 43.73C71.0204 43.7833 70.7804 43.8767 70.6404 44.01C70.5004 44.1367 70.4304 44.3233 70.4304 44.57C70.4304 44.85 70.5371 45.0833 70.7504 45.27C70.9637 45.45 71.2271 45.54 71.5404 45.54ZM80.0136 41.03C80.4403 41.03 80.8169 41.1333 81.1436 41.34C81.4703 41.5467 81.7236 41.84 81.9036 42.22C82.0836 42.5933 82.1736 43.03 82.1736 43.53C82.1736 44.0367 82.0836 44.4833 81.9036 44.87C81.7236 45.25 81.4703 45.5467 81.1436 45.76C80.8169 45.9667 80.4403 46.07 80.0136 46.07C79.6203 46.07 79.2803 45.9867 78.9936 45.82C78.7069 45.6467 78.4903 45.3967 78.3436 45.07V45.73C78.3436 45.8233 78.3169 45.9 78.2636 45.96C78.2103 46.0133 78.1369 46.04 78.0436 46.04C77.9503 46.04 77.8736 46.0133 77.8136 45.96C77.7603 45.9 77.7336 45.8233 77.7336 45.73V39.21C77.7336 39.1167 77.7603 39.0433 77.8136 38.99C77.8736 38.93 77.9503 38.9 78.0436 38.9C78.1369 38.9 78.2103 38.93 78.2636 38.99C78.3169 39.0433 78.3436 39.1167 78.3436 39.21V42.03C78.4903 41.7033 78.7069 41.4567 78.9936 41.29C79.2803 41.1167 79.6203 41.03 80.0136 41.03ZM79.9336 45.53C80.4403 45.53 80.8336 45.3533 81.1136 45C81.4003 44.6467 81.5436 44.1567 81.5436 43.53C81.5436 42.9033 81.4003 42.42 81.1136 42.08C80.8336 41.7333 80.4369 41.56 79.9236 41.56C79.4169 41.56 79.0269 41.7333 78.7536 42.08C78.4803 42.4267 78.3436 42.9167 78.3436 43.55C78.3436 44.1833 78.4803 44.6733 78.7536 45.02C79.0336 45.36 79.4269 45.53 79.9336 45.53ZM87.186 44.96C87.246 44.96 87.296 44.9867 87.336 45.04C87.3827 45.0867 87.406 45.1433 87.406 45.21C87.406 45.3567 87.2927 45.5 87.066 45.64C86.586 45.9267 86.0793 46.07 85.546 46.07C84.806 46.07 84.2227 45.8467 83.796 45.4C83.3693 44.9533 83.156 44.34 83.156 43.56C83.156 43.06 83.2493 42.62 83.436 42.24C83.6293 41.8533 83.896 41.5567 84.236 41.35C84.5827 41.1367 84.9793 41.03 85.426 41.03C86.0527 41.03 86.546 41.2333 86.906 41.64C87.2727 42.04 87.456 42.5933 87.456 43.3C87.456 43.42 87.4293 43.51 87.376 43.57C87.3227 43.6233 87.236 43.65 87.116 43.65H83.786C83.806 44.2633 83.966 44.73 84.266 45.05C84.566 45.37 84.9893 45.53 85.536 45.53C85.8227 45.53 86.0627 45.4933 86.256 45.42C86.4493 45.34 86.656 45.2367 86.876 45.11C87.0227 45.01 87.126 44.96 87.186 44.96ZM85.426 41.53C84.9593 41.53 84.586 41.6767 84.306 41.97C84.026 42.2633 83.8593 42.6733 83.806 43.2H86.896C86.8827 42.6667 86.7493 42.2567 86.496 41.97C86.2427 41.6767 85.886 41.53 85.426 41.53ZM90.8299 45.54C91.0166 45.56 91.1099 45.6467 91.1099 45.8C91.1099 45.88 91.0799 45.9433 91.0199 45.99C90.9599 46.0367 90.8633 46.0567 90.7299 46.05L90.4499 46.03C89.9433 45.9967 89.5666 45.8433 89.3199 45.57C89.0799 45.29 88.9599 44.8667 88.9599 44.3V41.64H88.1999C88.1199 41.64 88.0566 41.62 88.0099 41.58C87.9633 41.5333 87.9399 41.4733 87.9399 41.4C87.9399 41.3267 87.9633 41.2667 88.0099 41.22C88.0566 41.1733 88.1199 41.15 88.1999 41.15H88.9599V39.91C88.9599 39.81 88.9866 39.7333 89.0399 39.68C89.0933 39.6267 89.1666 39.6 89.2599 39.6C89.3533 39.6 89.4266 39.6267 89.4799 39.68C89.5399 39.7333 89.5699 39.81 89.5699 39.91V41.15H90.7799C90.8666 41.15 90.9333 41.1733 90.9799 41.22C91.0266 41.2667 91.0499 41.3267 91.0499 41.4C91.0499 41.4733 91.0266 41.5333 90.9799 41.58C90.9333 41.62 90.8666 41.64 90.7799 41.64H89.5699V44.33C89.5699 44.7433 89.6499 45.04 89.8099 45.22C89.9699 45.3933 90.2199 45.4933 90.5599 45.52L90.8299 45.54ZM94.1795 45.54C94.3662 45.56 94.4595 45.6467 94.4595 45.8C94.4595 45.88 94.4295 45.9433 94.3695 45.99C94.3095 46.0367 94.2129 46.0567 94.0795 46.05L93.7995 46.03C93.2929 45.9967 92.9162 45.8433 92.6695 45.57C92.4295 45.29 92.3095 44.8667 92.3095 44.3V41.64H91.5495C91.4695 41.64 91.4062 41.62 91.3595 41.58C91.3129 41.5333 91.2895 41.4733 91.2895 41.4C91.2895 41.3267 91.3129 41.2667 91.3595 41.22C91.4062 41.1733 91.4695 41.15 91.5495 41.15H92.3095V39.91C92.3095 39.81 92.3362 39.7333 92.3895 39.68C92.4429 39.6267 92.5162 39.6 92.6095 39.6C92.7029 39.6 92.7762 39.6267 92.8295 39.68C92.8895 39.7333 92.9195 39.81 92.9195 39.91V41.15H94.1295C94.2162 41.15 94.2829 41.1733 94.3295 41.22C94.3762 41.2667 94.3995 41.3267 94.3995 41.4C94.3995 41.4733 94.3762 41.5333 94.3295 41.58C94.2829 41.62 94.2162 41.64 94.1295 41.64H92.9195V44.33C92.9195 44.7433 92.9995 45.04 93.1595 45.22C93.3195 45.3933 93.5695 45.4933 93.9095 45.52L94.1795 45.54ZM99.061 44.96C99.121 44.96 99.171 44.9867 99.211 45.04C99.2577 45.0867 99.281 45.1433 99.281 45.21C99.281 45.3567 99.1677 45.5 98.941 45.64C98.461 45.9267 97.9543 46.07 97.421 46.07C96.681 46.07 96.0977 45.8467 95.671 45.4C95.2443 44.9533 95.031 44.34 95.031 43.56C95.031 43.06 95.1243 42.62 95.311 42.24C95.5043 41.8533 95.771 41.5567 96.111 41.35C96.4577 41.1367 96.8543 41.03 97.301 41.03C97.9277 41.03 98.421 41.2333 98.781 41.64C99.1477 42.04 99.331 42.5933 99.331 43.3C99.331 43.42 99.3043 43.51 99.251 43.57C99.1977 43.6233 99.111 43.65 98.991 43.65H95.661C95.681 44.2633 95.841 44.73 96.141 45.05C96.441 45.37 96.8643 45.53 97.411 45.53C97.6977 45.53 97.9377 45.4933 98.131 45.42C98.3243 45.34 98.531 45.2367 98.751 45.11C98.8977 45.01 99.001 44.96 99.061 44.96ZM97.301 41.53C96.8343 41.53 96.461 41.6767 96.181 41.97C95.901 42.2633 95.7343 42.6733 95.681 43.2H98.771C98.7577 42.6667 98.6243 42.2567 98.371 41.97C98.1177 41.6767 97.761 41.53 97.301 41.53ZM102.865 41.05C102.991 41.0433 103.081 41.06 103.135 41.1C103.188 41.14 103.215 41.2067 103.215 41.3C103.215 41.4667 103.115 41.56 102.915 41.58L102.615 41.61C102.141 41.6567 101.788 41.8267 101.555 42.12C101.328 42.4133 101.215 42.7567 101.215 43.15V45.74C101.215 45.84 101.188 45.9167 101.135 45.97C101.081 46.0233 101.008 46.05 100.915 46.05C100.821 46.05 100.745 46.0233 100.685 45.97C100.631 45.9167 100.605 45.84 100.605 45.74V41.36C100.605 41.26 100.631 41.1833 100.685 41.13C100.745 41.0767 100.821 41.05 100.915 41.05C101.001 41.05 101.071 41.0767 101.125 41.13C101.178 41.1833 101.205 41.2567 101.205 41.35V42C101.478 41.4267 101.985 41.1133 102.725 41.06L102.865 41.05ZM108.513 39.46C108.133 39.4867 107.846 39.6067 107.653 39.82C107.46 40.0267 107.363 40.3467 107.363 40.78V41.15H108.573C108.66 41.15 108.726 41.1733 108.773 41.22C108.82 41.2667 108.843 41.3267 108.843 41.4C108.843 41.4733 108.82 41.5333 108.773 41.58C108.726 41.62 108.66 41.64 108.573 41.64H107.363V45.74C107.363 45.8333 107.333 45.91 107.273 45.97C107.213 46.0233 107.14 46.05 107.053 46.05C106.96 46.05 106.886 46.0233 106.833 45.97C106.78 45.9167 106.753 45.84 106.753 45.74V41.64H105.993C105.913 41.64 105.85 41.62 105.803 41.58C105.756 41.5333 105.733 41.4733 105.733 41.4C105.733 41.3267 105.756 41.2667 105.803 41.22C105.85 41.1733 105.913 41.15 105.993 41.15H106.753V40.9C106.753 40.3133 106.893 39.8533 107.173 39.52C107.46 39.1867 107.873 39 108.413 38.96L108.673 38.94C108.933 38.92 109.063 38.9967 109.063 39.17C109.063 39.33 108.966 39.42 108.773 39.44L108.513 39.46ZM113.287 41.05C113.381 41.05 113.454 41.08 113.507 41.14C113.567 41.1933 113.597 41.2667 113.597 41.36V45.74C113.597 45.8333 113.567 45.91 113.507 45.97C113.454 46.0233 113.381 46.05 113.287 46.05C113.201 46.05 113.131 46.0233 113.077 45.97C113.024 45.91 112.997 45.8333 112.997 45.74V45.13C112.844 45.4367 112.624 45.67 112.337 45.83C112.057 45.99 111.737 46.07 111.377 46.07C110.804 46.07 110.371 45.9133 110.077 45.6C109.791 45.28 109.647 44.81 109.647 44.19V41.36C109.647 41.2667 109.674 41.1933 109.727 41.14C109.787 41.08 109.864 41.05 109.957 41.05C110.051 41.05 110.124 41.08 110.177 41.14C110.231 41.1933 110.257 41.2667 110.257 41.36V44.15C110.257 44.6233 110.351 44.9733 110.537 45.2C110.731 45.42 111.031 45.53 111.437 45.53C111.904 45.53 112.277 45.3833 112.557 45.09C112.844 44.79 112.987 44.3933 112.987 43.9V41.36C112.987 41.2667 113.014 41.1933 113.067 41.14C113.121 41.08 113.194 41.05 113.287 41.05ZM117.305 45.54C117.491 45.56 117.585 45.6467 117.585 45.8C117.585 45.88 117.555 45.9433 117.495 45.99C117.435 46.0367 117.338 46.0567 117.205 46.05L116.925 46.03C116.418 45.9967 116.041 45.8433 115.795 45.57C115.555 45.29 115.435 44.8667 115.435 44.3V41.64H114.675C114.595 41.64 114.531 41.62 114.485 41.58C114.438 41.5333 114.415 41.4733 114.415 41.4C114.415 41.3267 114.438 41.2667 114.485 41.22C114.531 41.1733 114.595 41.15 114.675 41.15H115.435V39.91C115.435 39.81 115.461 39.7333 115.515 39.68C115.568 39.6267 115.641 39.6 115.735 39.6C115.828 39.6 115.901 39.6267 115.955 39.68C116.015 39.7333 116.045 39.81 116.045 39.91V41.15H117.255C117.341 41.15 117.408 41.1733 117.455 41.22C117.501 41.2667 117.525 41.3267 117.525 41.4C117.525 41.4733 117.501 41.5333 117.455 41.58C117.408 41.62 117.341 41.64 117.255 41.64H116.045V44.33C116.045 44.7433 116.125 45.04 116.285 45.22C116.445 45.3933 116.695 45.4933 117.035 45.52L117.305 45.54ZM122.086 41.05C122.179 41.05 122.253 41.08 122.306 41.14C122.366 41.1933 122.396 41.2667 122.396 41.36V45.74C122.396 45.8333 122.366 45.91 122.306 45.97C122.253 46.0233 122.179 46.05 122.086 46.05C121.999 46.05 121.929 46.0233 121.876 45.97C121.823 45.91 121.796 45.8333 121.796 45.74V45.13C121.643 45.4367 121.423 45.67 121.136 45.83C120.856 45.99 120.536 46.07 120.176 46.07C119.603 46.07 119.169 45.9133 118.876 45.6C118.589 45.28 118.446 44.81 118.446 44.19V41.36C118.446 41.2667 118.473 41.1933 118.526 41.14C118.586 41.08 118.663 41.05 118.756 41.05C118.849 41.05 118.923 41.08 118.976 41.14C119.029 41.1933 119.056 41.2667 119.056 41.36V44.15C119.056 44.6233 119.149 44.9733 119.336 45.2C119.529 45.42 119.829 45.53 120.236 45.53C120.703 45.53 121.076 45.3833 121.356 45.09C121.643 44.79 121.786 44.3933 121.786 43.9V41.36C121.786 41.2667 121.813 41.1933 121.866 41.14C121.919 41.08 121.993 41.05 122.086 41.05ZM126.253 41.05C126.38 41.0433 126.47 41.06 126.523 41.1C126.577 41.14 126.603 41.2067 126.603 41.3C126.603 41.4667 126.503 41.56 126.303 41.58L126.003 41.61C125.53 41.6567 125.177 41.8267 124.943 42.12C124.717 42.4133 124.603 42.7567 124.603 43.15V45.74C124.603 45.84 124.577 45.9167 124.523 45.97C124.47 46.0233 124.397 46.05 124.303 46.05C124.21 46.05 124.133 46.0233 124.073 45.97C124.02 45.9167 123.993 45.84 123.993 45.74V41.36C123.993 41.26 124.02 41.1833 124.073 41.13C124.133 41.0767 124.21 41.05 124.303 41.05C124.39 41.05 124.46 41.0767 124.513 41.13C124.567 41.1833 124.593 41.2567 124.593 41.35V42C124.867 41.4267 125.373 41.1133 126.113 41.06L126.253 41.05ZM131.004 44.96C131.064 44.96 131.114 44.9867 131.154 45.04C131.201 45.0867 131.224 45.1433 131.224 45.21C131.224 45.3567 131.111 45.5 130.884 45.64C130.404 45.9267 129.898 46.07 129.364 46.07C128.624 46.07 128.041 45.8467 127.614 45.4C127.188 44.9533 126.974 44.34 126.974 43.56C126.974 43.06 127.068 42.62 127.254 42.24C127.448 41.8533 127.714 41.5567 128.054 41.35C128.401 41.1367 128.798 41.03 129.244 41.03C129.871 41.03 130.364 41.2333 130.724 41.64C131.091 42.04 131.274 42.5933 131.274 43.3C131.274 43.42 131.248 43.51 131.194 43.57C131.141 43.6233 131.054 43.65 130.934 43.65H127.604C127.624 44.2633 127.784 44.73 128.084 45.05C128.384 45.37 128.808 45.53 129.354 45.53C129.641 45.53 129.881 45.4933 130.074 45.42C130.268 45.34 130.474 45.2367 130.694 45.11C130.841 45.01 130.944 44.96 131.004 44.96ZM129.244 41.53C128.778 41.53 128.404 41.6767 128.124 41.97C127.844 42.2633 127.678 42.6733 127.624 43.2H130.714C130.701 42.6667 130.568 42.2567 130.314 41.97C130.061 41.6767 129.704 41.53 129.244 41.53Z" fill="black"/>
<path d="M11.73 30.27C9.69 30.27 7.9 29.83 6.36 28.95C4.84 28.07 3.67 26.81 2.85 25.17C2.03 23.53 1.62 21.61 1.62 19.41C1.62 17.21 2.03 15.3 2.85 13.68C3.67 12.04 4.84 10.78 6.36 9.9C7.9 9.02 9.69 8.58 11.73 8.58C13.05 8.58 14.29 8.78 15.45 9.18C16.61 9.56 17.64 10.12 18.54 10.86C18.8 11.06 18.98 11.27 19.08 11.49C19.18 11.71 19.23 11.98 19.23 12.3C19.23 12.74 19.11 13.11 18.87 13.41C18.63 13.71 18.34 13.86 18 13.86C17.6 13.86 17.19 13.72 16.77 13.44C15.91 12.8 15.11 12.36 14.37 12.12C13.63 11.86 12.81 11.73 11.91 11.73C9.83 11.73 8.25 12.38 7.17 13.68C6.11 14.98 5.58 16.89 5.58 19.41C5.58 21.95 6.11 23.87 7.17 25.17C8.25 26.47 9.83 27.12 11.91 27.12C12.77 27.12 13.56 26.99 14.28 26.73C15.02 26.47 15.85 26.03 16.77 25.41C16.97 25.29 17.17 25.19 17.37 25.11C17.57 25.03 17.78 24.99 18 24.99C18.34 24.99 18.63 25.14 18.87 25.44C19.11 25.74 19.23 26.11 19.23 26.55C19.23 26.85 19.18 27.12 19.08 27.36C18.98 27.58 18.8 27.79 18.54 27.99C17.64 28.73 16.61 29.3 15.45 29.7C14.29 30.08 13.05 30.27 11.73 30.27ZM30.862 14.97C34.302 14.97 36.022 16.98 36.022 21V28.38C36.022 28.94 35.852 29.38 35.512 29.7C35.192 30.02 34.742 30.18 34.162 30.18C33.582 30.18 33.122 30.02 32.782 29.7C32.442 29.38 32.272 28.94 32.272 28.38V21C32.272 19.94 32.052 19.17 31.612 18.69C31.192 18.19 30.522 17.94 29.602 17.94C28.522 17.94 27.652 18.28 26.992 18.96C26.352 19.64 26.032 20.55 26.032 21.69V28.38C26.032 28.94 25.862 29.38 25.522 29.7C25.182 30.02 24.722 30.18 24.142 30.18C23.562 30.18 23.102 30.02 22.762 29.7C22.442 29.38 22.282 28.94 22.282 28.38V10.44C22.282 9.92 22.452 9.5 22.792 9.18C23.152 8.86 23.612 8.7 24.172 8.7C24.732 8.7 25.182 8.85 25.522 9.15C25.862 9.45 26.032 9.86 26.032 10.38V17.37C26.532 16.59 27.192 16 28.012 15.6C28.852 15.18 29.802 14.97 30.862 14.97ZM41.6909 30.18C41.1509 30.18 40.7009 30.03 40.3409 29.73C40.0009 29.41 39.8309 28.96 39.8309 28.38V16.8C39.8309 16.22 40.0009 15.78 40.3409 15.48C40.7009 15.18 41.1509 15.03 41.6909 15.03C42.2309 15.03 42.6809 15.18 43.0409 15.48C43.4009 15.78 43.5809 16.22 43.5809 16.8V28.38C43.5809 28.96 43.4009 29.41 43.0409 29.73C42.6809 30.03 42.2309 30.18 41.6909 30.18ZM41.6909 12.36C41.0109 12.36 40.4709 12.18 40.0709 11.82C39.6709 11.44 39.4709 10.95 39.4709 10.35C39.4709 9.75 39.6709 9.27 40.0709 8.91C40.4709 8.55 41.0109 8.37 41.6909 8.37C42.3509 8.37 42.8809 8.55 43.2809 8.91C43.7009 9.27 43.9109 9.75 43.9109 10.35C43.9109 10.95 43.7109 11.44 43.3109 11.82C42.9109 12.18 42.3709 12.36 41.6909 12.36ZM49.308 30.18C48.768 30.18 48.318 30.03 47.958 29.73C47.618 29.41 47.448 28.96 47.448 28.38V10.47C47.448 9.89 47.618 9.45 47.958 9.15C48.318 8.85 48.768 8.7 49.308 8.7C49.848 8.7 50.298 8.85 50.658 9.15C51.018 9.45 51.198 9.89 51.198 10.47V28.38C51.198 28.96 51.018 29.41 50.658 29.73C50.298 30.03 49.848 30.18 49.308 30.18ZM67.3052 8.7C67.8652 8.7 68.3252 8.86 68.6852 9.18C69.0452 9.5 69.2252 9.92 69.2252 10.44V28.38C69.2252 28.92 69.0552 29.35 68.7152 29.67C68.3752 29.99 67.9252 30.15 67.3652 30.15C66.8052 30.15 66.3552 29.99 66.0152 29.67C65.6752 29.35 65.5052 28.92 65.5052 28.38V27.63C65.0652 28.45 64.4252 29.09 63.5852 29.55C62.7652 30.01 61.8252 30.24 60.7652 30.24C59.5052 30.24 58.3752 29.92 57.3752 29.28C56.3952 28.64 55.6252 27.74 55.0652 26.58C54.5252 25.4 54.2552 24.05 54.2552 22.53C54.2552 21.01 54.5252 19.68 55.0652 18.54C55.6252 17.4 56.3952 16.52 57.3752 15.9C58.3552 15.28 59.4852 14.97 60.7652 14.97C61.8252 14.97 62.7652 15.19 63.5852 15.63C64.4052 16.07 65.0352 16.69 65.4752 17.49V10.38C65.4752 9.88 65.6352 9.48 65.9552 9.18C66.2952 8.86 66.7452 8.7 67.3052 8.7ZM61.7552 27.33C62.9552 27.33 63.8752 26.92 64.5152 26.1C65.1752 25.28 65.5052 24.11 65.5052 22.59C65.5052 21.07 65.1752 19.91 64.5152 19.11C63.8752 18.29 62.9652 17.88 61.7852 17.88C60.5852 17.88 59.6552 18.28 58.9952 19.08C58.3352 19.88 58.0052 21.03 58.0052 22.53C58.0052 24.05 58.3352 25.23 58.9952 26.07C59.6552 26.91 60.5752 27.33 61.7552 27.33Z" fill="#FF6B17"/>
<path d="M82.5928 30.24C80.6528 30.24 78.9728 29.81 77.5528 28.95C76.1328 28.07 75.0428 26.82 74.2828 25.2C73.5228 23.56 73.1428 21.63 73.1428 19.41C73.1428 17.19 73.5228 15.27 74.2828 13.65C75.0428 12.03 76.1328 10.79 77.5528 9.93C78.9728 9.05 80.6528 8.61 82.5928 8.61C83.9328 8.61 85.2128 8.85 86.4328 9.33C87.6728 9.81 88.7028 10.47 89.5228 11.31C89.7228 11.51 89.8228 11.75 89.8228 12.03C89.8228 12.19 89.7828 12.33 89.7028 12.45C89.6228 12.55 89.5228 12.6 89.4028 12.6C89.2428 12.6 89.0728 12.52 88.8928 12.36C87.7528 11.4 86.7128 10.74 85.7728 10.38C84.8528 10.02 83.7728 9.84 82.5328 9.84C79.9928 9.84 78.0128 10.68 76.5928 12.36C75.1928 14.04 74.4928 16.39 74.4928 19.41C74.4928 22.45 75.1928 24.81 76.5928 26.49C77.9928 28.17 79.9728 29.01 82.5328 29.01C83.7928 29.01 84.8828 28.83 85.8028 28.47C86.7228 28.11 87.7528 27.45 88.8928 26.49C89.1128 26.33 89.2828 26.25 89.4028 26.25C89.5228 26.25 89.6228 26.31 89.7028 26.43C89.7828 26.53 89.8228 26.66 89.8228 26.82C89.8228 27.1 89.7228 27.34 89.5228 27.54C88.7028 28.38 87.6728 29.04 86.4328 29.52C85.2128 30 83.9328 30.24 82.5928 30.24ZM99.2726 15.12C102.613 15.12 104.283 16.91 104.283 20.49V29.43C104.283 29.65 104.223 29.82 104.103 29.94C104.003 30.06 103.853 30.12 103.653 30.12C103.453 30.12 103.293 30.06 103.173 29.94C103.053 29.8 102.993 29.63 102.993 29.43V27.33C102.553 28.25 101.913 28.96 101.073 29.46C100.253 29.96 99.3126 30.21 98.2526 30.21C97.3326 30.21 96.4926 30.02 95.7326 29.64C94.9726 29.26 94.3626 28.75 93.9026 28.11C93.4626 27.45 93.2326 26.72 93.2126 25.92C93.1926 24.82 93.4626 23.97 94.0226 23.37C94.5826 22.77 95.5226 22.34 96.8426 22.08C98.1626 21.82 100.013 21.69 102.393 21.69H102.993V20.43C102.993 19.01 102.703 17.98 102.123 17.34C101.563 16.68 100.673 16.35 99.4526 16.35C98.4926 16.35 97.6326 16.48 96.8726 16.74C96.1326 16.98 95.5426 17.26 95.1026 17.58C95.0226 17.64 94.8526 17.76 94.5926 17.94C94.3526 18.1 94.1526 18.18 93.9926 18.18C93.8526 18.18 93.7226 18.13 93.6026 18.03C93.5026 17.91 93.4526 17.77 93.4526 17.61C93.4526 17.23 93.8026 16.83 94.5026 16.41C95.2026 15.99 95.9626 15.67 96.7826 15.45C97.6226 15.23 98.4526 15.12 99.2726 15.12ZM98.2526 28.95C99.1526 28.95 99.9626 28.74 100.683 28.32C101.403 27.88 101.963 27.28 102.363 26.52C102.783 25.76 102.993 24.9 102.993 23.94V22.86H102.423C100.323 22.86 98.7226 22.95 97.6226 23.13C96.5226 23.29 95.7526 23.58 95.3126 24C94.8726 24.4 94.6526 25 94.6526 25.8C94.6526 26.72 94.9926 27.48 95.6726 28.08C96.3526 28.66 97.2126 28.95 98.2526 28.95ZM115.907 15.18C116.147 15.18 116.307 15.23 116.387 15.33C116.487 15.41 116.537 15.54 116.537 15.72C116.537 16.06 116.327 16.26 115.907 16.32L115.007 16.41C113.547 16.55 112.447 17.09 111.707 18.03C110.967 18.97 110.597 20.05 110.597 21.27V29.46C110.597 29.68 110.537 29.85 110.417 29.97C110.317 30.09 110.167 30.15 109.967 30.15C109.767 30.15 109.607 30.09 109.487 29.97C109.387 29.85 109.337 29.68 109.337 29.46V15.87C109.337 15.41 109.547 15.18 109.967 15.18C110.147 15.18 110.297 15.24 110.417 15.36C110.537 15.48 110.597 15.65 110.597 15.87V18.03C111.457 16.31 113.017 15.37 115.277 15.21L115.697 15.18H115.907ZM129.839 27.15C129.979 27.15 130.099 27.21 130.199 27.33C130.299 27.43 130.349 27.55 130.349 27.69C130.349 27.89 130.269 28.09 130.109 28.29C129.969 28.47 129.709 28.68 129.329 28.92C127.889 29.78 126.399 30.21 124.859 30.21C122.679 30.21 120.959 29.54 119.699 28.2C118.459 26.86 117.839 25.02 117.839 22.68C117.839 21.18 118.119 19.86 118.679 18.72C119.239 17.58 120.029 16.7 121.049 16.08C122.069 15.44 123.239 15.12 124.559 15.12C126.399 15.12 127.849 15.72 128.909 16.92C129.969 18.12 130.499 19.76 130.499 21.84C130.499 22.2 130.429 22.46 130.289 22.62C130.149 22.78 129.899 22.86 129.539 22.86H119.219C119.239 24.82 119.729 26.33 120.689 27.39C121.669 28.45 123.039 28.98 124.799 28.98C125.759 28.98 126.549 28.85 127.169 28.59C127.809 28.33 128.429 27.99 129.029 27.57C129.449 27.29 129.719 27.15 129.839 27.15ZM124.559 16.29C123.039 16.29 121.809 16.77 120.869 17.73C119.949 18.67 119.409 19.99 119.249 21.69H129.299C129.259 19.95 128.829 18.62 128.009 17.7C127.189 16.76 126.039 16.29 124.559 16.29Z" fill="black"/>
</svg>
